<svg width="123" height="125" viewBox="0 0 123 125" fill="none" xmlns="http://www.w3.org/2000/svg">
<ellipse cx="61.7759" cy="62.3371" rx="61.0406" ry="61.6818" fill="#D9D9D9"/>
<path d="M61.2979 59.1865C71.2151 59.1865 79.2527 51.1489 79.2527 41.2317C79.2527 31.3145 71.2151 23.2769 61.2979 23.2769C51.3807 23.2769 43.3431 31.3145 43.3431 41.2317C43.3431 51.1489 51.3807 59.1865 61.2979 59.1865ZM73.8663 63.6752H71.5238C68.4097 65.106 64.945 65.9196 61.2979 65.9196C57.6508 65.9196 54.2001 65.106 51.0721 63.6752H48.7295C38.3213 63.6752 29.877 72.1196 29.877 82.5278V88.3631C29.877 92.0803 32.8928 95.0962 36.61 95.0962H85.9858C89.703 95.0962 92.7189 92.0803 92.7189 88.3631V82.5278C92.7189 72.1196 84.2745 63.6752 73.8663 63.6752Z" fill="white"/>
</svg>
