<svg width="96" height="98" viewBox="0 0 96 98" fill="none" xmlns="http://www.w3.org/2000/svg">
<ellipse cx="48.0874" cy="49.0494" rx="47.6557" ry="48.1564" fill="#6C6C6C" fill-opacity="0.3"/>
<path d="M48.2 46.5283C55.9426 46.5283 62.2177 40.6691 62.2177 33.4396C62.2177 26.2102 55.9426 20.351 48.2 20.351C40.4574 20.351 34.1823 26.2102 34.1823 33.4396C34.1823 40.6691 40.4574 46.5283 48.2 46.5283ZM58.0124 49.8005H56.1835C53.7523 50.8435 51.0473 51.4366 48.2 51.4366C45.3526 51.4366 42.6586 50.8435 40.2165 49.8005H38.3876C30.2617 49.8005 23.6689 55.9563 23.6689 63.5436V67.7974C23.6689 70.5072 26.0235 72.7057 28.9256 72.7057H67.4744C70.3765 72.7057 72.731 70.5072 72.731 67.7974V63.5436C72.731 55.9563 66.1383 49.8005 58.0124 49.8005Z" fill="white"/>
</svg>
